<svg width="8" height="4" viewBox="0 0 8 4" fill="none" xmlns="http://www.w3.org/2000/svg">
<path d="M4.01162 3.99999C3.94179 4.00029 3.87259 3.98822 3.80809 3.96462C3.7436 3.94096 3.6851 3.90617 3.63603 3.86233L0.0927135 0.734042C0.0220403 0.64276 -0.00985231 0.532377 0.00266033 0.42236C0.0151736 0.312343 0.0712868 0.209765 0.161107 0.132714C0.250926 0.0556571 0.368673 0.0090828 0.493593 0.00119583C0.618512 -0.00669113 0.742572 0.0246213 0.843892 0.0896122L4.01162 2.86753L7.17932 0.0896122C7.27925 0.0324317 7.39799 0.00651652 7.51652 0.0160221C7.63512 0.0255218 7.74658 0.0698889 7.83318 0.142019C7.91978 0.214144 7.97645 0.309847 7.99412 0.41379C8.01178 0.517733 7.98938 0.623901 7.93052 0.715273L4.38721 3.84355C4.33997 3.89081 4.28229 3.92907 4.2177 3.95597C4.15311 3.98287 4.08299 3.99788 4.01162 3.99999Z" fill="black"/>
</svg>
