<svg width="21" height="21" viewBox="0 0 21 21" fill="none" xmlns="http://www.w3.org/2000/svg">
<path d="M6.48975 11C6.48975 12.0609 6.904 13.0783 7.64139 13.8284C8.37877 14.5786 9.37888 15 10.4217 15C11.4645 15 12.4646 14.5786 13.202 13.8284C13.9394 13.0783 14.3536 12.0609 14.3536 11C14.3536 9.93913 13.9394 8.92172 13.202 8.17157C12.4646 7.42143 11.4645 7 10.4217 7C9.37888 7 8.37877 7.42143 7.64139 8.17157C6.904 8.92172 6.48975 9.93913 6.48975 11Z" stroke="black" stroke-width="2" stroke-linecap="round" stroke-linejoin="round"/>
<path d="M14.3535 11V12.5C14.3535 13.1631 14.6124 13.799 15.0733 14.2678C15.5342 14.7366 16.1592 15 16.811 15C17.4628 15 18.0878 14.7366 18.5487 14.2678C19.0096 13.799 19.2685 13.1631 19.2685 12.5V11C19.2709 9.06613 18.661 7.18287 17.529 5.62922C16.397 4.07557 14.8032 2.93418 12.9836 2.37413C11.1641 1.81408 9.21562 1.86515 7.42685 2.51979C5.63809 3.17443 4.10417 4.39781 3.05234 6.00871C2.0005 7.6196 1.4867 9.53232 1.58704 11.4635C1.68739 13.3947 2.39654 15.2417 3.60944 16.7308C4.82235 18.2199 6.47449 19.272 8.32113 19.7311C10.1678 20.1903 12.1107 20.0321 13.862 19.28" stroke="black" stroke-width="2" stroke-linecap="round" stroke-linejoin="round"/>
</svg>
