<svg width="35" height="41" viewBox="0 0 35 41" fill="none" xmlns="http://www.w3.org/2000/svg">
<path d="M29.2417 5.88569C32.3548 9.05228 34.1352 13.3264 34.2066 17.8043C34.278 22.2822 32.6347 26.6128 29.6242 29.8804L29.2417 30.2829L21.2476 38.4134C20.2333 39.4447 18.8716 40.0451 17.4384 40.0932C16.0051 40.1412 14.6075 39.6333 13.5286 38.6722L13.2573 38.4134L5.2614 30.281C2.08142 27.046 0.294922 22.6584 0.294922 18.0834C0.294922 13.5083 2.08142 9.12071 5.2614 5.88569C8.44139 2.65067 12.7544 0.833252 17.2515 0.833252C21.7487 0.833252 26.0617 2.65067 29.2417 5.88569ZM17.2515 12.3334C16.5093 12.3334 15.7743 12.4821 15.0886 12.771C14.4028 13.06 13.7797 13.4836 13.2549 14.0175C12.73 14.5514 12.3137 15.1853 12.0296 15.8829C11.7456 16.5806 11.5994 17.3283 11.5994 18.0834C11.5994 18.8385 11.7456 19.5862 12.0296 20.2838C12.3137 20.9814 12.73 21.6153 13.2549 22.1492C13.7797 22.6832 14.4028 23.1067 15.0886 23.3957C15.7743 23.6846 16.5093 23.8334 17.2515 23.8334C18.7506 23.8334 20.1883 23.2276 21.2482 22.1492C22.3082 21.0709 22.9037 19.6084 22.9037 18.0834C22.9037 16.5584 22.3082 15.0958 21.2482 14.0175C20.1883 12.9392 18.7506 12.3334 17.2515 12.3334Z" fill="#E73235"/>
</svg>
