<svg width="24" height="23" viewBox="0 0 24 23" fill="none" xmlns="http://www.w3.org/2000/svg">
<path d="M23.0062 14.267C22.2654 13.4751 20.8457 13.1096 18.8086 13.1096C17.6975 13.1096 16.5247 13.2314 15.4136 13.4142C14.6728 12.7441 14.0556 11.9522 13.4383 11.1603C13.0062 10.5511 12.5741 9.94198 12.2037 9.2719C12.821 7.56626 13.1914 5.73877 13.3148 3.91129C13.3148 2.26656 12.6358 0.5 10.784 0.5C10.1667 0.5 9.54938 0.865496 9.24074 1.41374C8.43827 2.75389 8.74691 5.49511 10.0432 8.35816C9.61111 9.6374 9.11728 10.9166 8.56173 12.3177C8.0679 13.536 7.51235 14.6934 6.83333 15.7899C4.91975 16.5209 0.907407 18.3484 0.537037 20.3586C0.41358 20.9678 0.598765 21.5769 1.09259 21.9424C1.52469 22.3079 2.14198 22.5516 2.75926 22.4907C5.16667 22.4907 7.57407 19.2012 9.24074 16.3382C10.1667 16.0336 11.0926 15.729 12.0802 15.4853C13.1296 15.2417 14.1173 14.998 15.0432 14.8153C17.6358 17.0082 19.9198 17.3737 21.0309 17.3737C22.5741 17.3737 23.1914 16.7037 23.3765 16.1554C23.6235 15.4853 23.5 14.7543 23.0062 14.267ZM21.3395 15.4244C21.2778 15.8508 20.784 16.1554 20.1667 16.1554C19.9815 16.1554 19.7963 16.1554 19.6111 16.0945C18.3765 15.7899 17.2037 15.1808 16.2161 14.3888C17.0185 14.267 17.8827 14.2061 18.6852 14.2061C19.2407 14.2061 19.7963 14.267 20.3519 14.3279C20.9074 14.4498 21.5247 14.6934 21.3395 15.4244ZM10.2901 1.96198C10.4136 1.77924 10.5988 1.6574 10.8457 1.59649C11.463 1.59649 11.5864 2.26656 11.5864 2.87572C11.5247 4.27679 11.2778 5.61694 10.8457 6.95709C9.7963 4.33771 9.91975 2.57114 10.2901 1.96198ZM13.7469 13.6579C13.0679 13.7797 12.3889 13.9624 11.7099 14.1452C11.2161 14.267 10.7222 14.4498 10.1667 14.5716C10.4136 14.0234 10.6605 13.4751 10.9074 12.9878C11.2161 12.3177 11.463 11.6476 11.7099 10.9776C11.9568 11.343 12.142 11.6476 12.3889 11.9522C12.821 12.5614 13.3148 13.1096 13.7469 13.6579ZM6.27778 17.191C4.73457 19.6276 3.19136 21.2114 2.32716 21.2114C2.2037 21.2114 2.01852 21.1505 1.95679 21.0896C1.77161 20.9678 1.70988 20.7241 1.77161 20.5414C1.89506 19.6276 3.68519 18.3484 6.27778 17.191Z" fill="white"/>
</svg>
