<svg width="16" height="17" viewBox="0 0 16 17" fill="none" xmlns="http://www.w3.org/2000/svg">
<path d="M3.2 0.656799H1.6C1.17565 0.656799 0.768687 0.828027 0.468629 1.13281C0.168571 1.4376 0 1.85098 0 2.28202V3.90724C0 4.33827 0.168571 4.75165 0.468629 5.05644C0.768687 5.36123 1.17565 5.53246 1.6 5.53246H3.2C3.62435 5.53246 4.03131 5.36123 4.33137 5.05644C4.63143 4.75165 4.8 4.33827 4.8 3.90724V2.28202C4.8 1.85098 4.63143 1.4376 4.33137 1.13281C4.03131 0.828027 3.62435 0.656799 3.2 0.656799Z" fill="black"/>
<path d="M14.4002 0.656799H12.8002C12.3758 0.656799 11.9689 0.828027 11.6688 1.13281C11.3688 1.4376 11.2002 1.85098 11.2002 2.28202V3.90724C11.2002 4.33827 11.3688 4.75165 11.6688 5.05644C11.9689 5.36123 12.3758 5.53246 12.8002 5.53246H14.4002C14.8245 5.53246 15.2315 5.36123 15.5316 5.05644C15.8316 4.75165 16.0002 4.33827 16.0002 3.90724V2.28202C16.0002 1.85098 15.8316 1.4376 15.5316 1.13281C15.2315 0.828027 14.8245 0.656799 14.4002 0.656799Z" fill="black"/>
<path d="M8.8001 0.656799H7.2001C6.77575 0.656799 6.36879 0.828027 6.06873 1.13281C5.76867 1.4376 5.6001 1.85098 5.6001 2.28202V3.90724C5.6001 4.33827 5.76867 4.75165 6.06873 5.05644C6.36879 5.36123 6.77575 5.53246 7.2001 5.53246H8.8001C9.22444 5.53246 9.63141 5.36123 9.93147 5.05644C10.2315 4.75165 10.4001 4.33827 10.4001 3.90724V2.28202C10.4001 1.85098 10.2315 1.4376 9.93147 1.13281C9.63141 0.828027 9.22444 0.656799 8.8001 0.656799Z" fill="black"/>
<path d="M3.2 6.34509H1.6C1.17565 6.34509 0.768687 6.51632 0.468629 6.82111C0.168571 7.1259 0 7.53928 0 7.97031V9.59553C0 10.0266 0.168571 10.4399 0.468629 10.7447C0.768687 11.0495 1.17565 11.2207 1.6 11.2207H3.2C3.62435 11.2207 4.03131 11.0495 4.33137 10.7447C4.63143 10.4399 4.8 10.0266 4.8 9.59553V7.97031C4.8 7.53928 4.63143 7.1259 4.33137 6.82111C4.03131 6.51632 3.62435 6.34509 3.2 6.34509Z" fill="black"/>
<path d="M14.4002 6.34509H12.8002C12.3758 6.34509 11.9689 6.51632 11.6688 6.82111C11.3688 7.1259 11.2002 7.53928 11.2002 7.97031V9.59553C11.2002 10.0266 11.3688 10.4399 11.6688 10.7447C11.9689 11.0495 12.3758 11.2207 12.8002 11.2207H14.4002C14.8245 11.2207 15.2315 11.0495 15.5316 10.7447C15.8316 10.4399 16.0002 10.0266 16.0002 9.59553V7.97031C16.0002 7.53928 15.8316 7.1259 15.5316 6.82111C15.2315 6.51632 14.8245 6.34509 14.4002 6.34509Z" fill="black"/>
<path d="M8.8001 6.34509H7.2001C6.77575 6.34509 6.36879 6.51632 6.06873 6.82111C5.76867 7.1259 5.6001 7.53928 5.6001 7.97031V9.59553C5.6001 10.0266 5.76867 10.4399 6.06873 10.7447C6.36879 11.0495 6.77575 11.2207 7.2001 11.2207H8.8001C9.22444 11.2207 9.63141 11.0495 9.93147 10.7447C10.2315 10.4399 10.4001 10.0266 10.4001 9.59553V7.97031C10.4001 7.53928 10.2315 7.1259 9.93147 6.82111C9.63141 6.51632 9.22444 6.34509 8.8001 6.34509Z" fill="black"/>
<path d="M8.8001 12.0333H7.2001C6.77575 12.0333 6.36879 12.2046 6.06873 12.5093C5.76867 12.8141 5.6001 13.2275 5.6001 13.6585V15.2838C5.6001 15.7148 5.76867 16.1282 6.06873 16.433C6.36879 16.7378 6.77575 16.909 7.2001 16.909H8.8001C9.22444 16.909 9.63141 16.7378 9.93147 16.433C10.2315 16.1282 10.4001 15.7148 10.4001 15.2838V13.6585C10.4001 13.2275 10.2315 12.8141 9.93147 12.5093C9.63141 12.2046 9.22444 12.0333 8.8001 12.0333Z" fill="black"/>
</svg>
