<svg width="22" height="23" viewBox="0 0 22 23" fill="none" xmlns="http://www.w3.org/2000/svg">
<path d="M7.30407 7.09193L1.0151 8.07238L0.903709 8.09675C0.735089 8.14489 0.58137 8.24028 0.45825 8.37319C0.335129 8.5061 0.247018 8.67176 0.202915 8.85326C0.158812 9.03477 0.160297 9.2256 0.207219 9.40629C0.25414 9.58697 0.344816 9.75103 0.469987 9.8817L5.02604 14.6504L3.95159 21.3863L3.93878 21.5029C3.92846 21.6905 3.96467 21.8776 4.04371 22.0451C4.12275 22.2126 4.24178 22.3546 4.3886 22.4564C4.53543 22.5582 4.70478 22.6162 4.87931 22.6245C5.05384 22.6328 5.22729 22.591 5.38189 22.5035L11.0065 19.3237L16.6182 22.5035L16.7168 22.5523C16.8795 22.6212 17.0564 22.6423 17.2292 22.6135C17.402 22.5847 17.5645 22.507 17.7002 22.3883C17.8358 22.2696 17.9397 22.1143 18.0011 21.9382C18.0625 21.7621 18.0792 21.5717 18.0495 21.3863L16.9741 14.6504L21.5321 9.88064L21.609 9.79055C21.7188 9.64509 21.7908 9.47092 21.8177 9.2858C21.8446 9.10067 21.8253 8.91119 21.7619 8.73668C21.6985 8.56216 21.5932 8.40884 21.4567 8.29233C21.3202 8.17582 21.1575 8.10029 20.985 8.07343L14.6961 7.09193L11.8848 0.965441C11.8034 0.787936 11.6775 0.638463 11.5212 0.533942C11.3649 0.42942 11.1846 0.374023 11.0006 0.374023C10.8165 0.374023 10.6362 0.42942 10.4799 0.533942C10.3236 0.638463 10.1977 0.787936 10.1164 0.965441L7.30407 7.09193Z" fill="white"/>
</svg>
