<svg width="18" height="16" viewBox="0 0 18 16" fill="none" xmlns="http://www.w3.org/2000/svg">
<path d="M13.0088 1.07191C14.301 1.77405 15.374 2.78396 16.12 4.00011C16.8661 5.21626 17.2588 6.59582 17.2588 8.00011C17.2588 9.4044 16.866 10.7839 16.12 12.0001C15.3739 13.2162 14.3009 14.2261 13.0087 14.9283C11.7165 15.6304 10.2507 16 8.75865 16C7.26658 16 5.80081 15.6303 4.50865 14.9281C3.21649 14.226 2.14349 13.216 1.39748 11.9999C0.651472 10.7837 0.258751 9.40415 0.258789 7.99986L0.263039 7.74066C0.310642 6.35906 0.737805 5.01265 1.50288 3.83268C2.26796 2.65271 3.34484 1.67946 4.62855 1.00781C5.91225 0.336162 7.35896 -0.0109685 8.82764 0.000264195C10.2963 0.0114969 11.7369 0.380709 13.0088 1.07191ZM8.75879 3.19989C8.53336 3.19989 8.31715 3.28418 8.15775 3.4342C7.99834 3.58423 7.90879 3.78771 7.90879 3.99988V7.57106L5.73704 8.93425C5.56379 9.04302 5.439 9.20788 5.38635 9.39752C5.3337 9.58717 5.35686 9.78841 5.45144 9.96304L5.50159 10.043C5.56346 10.1305 5.64305 10.2057 5.73579 10.2642C5.82854 10.3227 5.93262 10.3635 6.04211 10.3841C6.15159 10.4048 6.26432 10.4049 6.37387 10.3846C6.48341 10.3642 6.58762 10.3237 6.68054 10.2654L9.25349 8.65105L9.32744 8.59505L9.39034 8.53505L9.45409 8.45985L9.49829 8.39585L9.52804 8.33985L9.57139 8.23425L9.59774 8.12625L9.60624 8.06065L9.60879 7.99986V3.99988C9.60879 3.78771 9.51924 3.58423 9.35983 3.4342C9.20042 3.28418 8.98422 3.19989 8.75879 3.19989Z" fill="black"/>
</svg>
