<svg width="18" height="16" viewBox="0 0 18 16" fill="none" xmlns="http://www.w3.org/2000/svg">
<path d="M10.2706 0.490356C10.9516 0.490356 11.6047 0.747198 12.0862 1.20438C12.5677 1.66156 12.8382 2.28163 12.8382 2.92818V3.74079H14.55C15.231 3.74079 15.8841 3.99764 16.3656 4.45482C16.8471 4.912 17.1176 5.53207 17.1176 6.17862V13.4921C17.1176 14.1387 16.8471 14.7587 16.3656 15.2159C15.8841 15.6731 15.231 15.9299 14.55 15.9299H2.56765C1.88666 15.9299 1.23357 15.6731 0.752046 15.2159C0.270519 14.7587 0 14.1387 0 13.4921V6.17862C0 5.53207 0.270519 4.912 0.752046 4.45482C1.23357 3.99764 1.88666 3.74079 2.56765 3.74079H4.27941V2.92818C4.27941 2.28163 4.54993 1.66156 5.03146 1.20438C5.51298 0.747198 6.16608 0.490356 6.84706 0.490356H10.2706ZM10.2706 2.11558H6.84706C6.62006 2.11558 6.40237 2.20119 6.24186 2.35358C6.08135 2.50598 5.99118 2.71267 5.99118 2.92818V3.74079H11.1265V2.92818C11.1265 2.71267 11.0363 2.50598 10.8758 2.35358C10.7153 2.20119 10.4976 2.11558 10.2706 2.11558Z" fill="black"/>
</svg>
