<svg width="25" height="21" viewBox="0 0 25 21" fill="none" xmlns="http://www.w3.org/2000/svg">
<path d="M9.7105 0H1.58581C1.22667 0 0.882247 0.124453 0.628301 0.34598C0.374355 0.567507 0.231689 0.867963 0.231689 1.18125V8.26875C0.231689 8.58204 0.374355 8.88249 0.628301 9.10402C0.882247 9.32555 1.22667 9.45 1.58581 9.45H9.7105C10.0696 9.45 10.4141 9.32555 10.668 9.10402C10.922 8.88249 11.0646 8.58204 11.0646 8.26875V1.18125C11.0646 0.867963 10.922 0.567507 10.668 0.34598C10.4141 0.124453 10.0696 0 9.7105 0Z" fill="white"/>
<path d="M22.9508 0H14.8261C14.467 0 14.1225 0.124453 13.8686 0.34598C13.6147 0.567507 13.472 0.867963 13.472 1.18125V8.26875C13.472 8.58204 13.6147 8.88249 13.8686 9.10402C14.1225 9.32555 14.467 9.45 14.8261 9.45H22.9508C23.3099 9.45 23.6544 9.32555 23.9083 9.10402C24.1622 8.88249 24.3049 8.58204 24.3049 8.26875V1.18125C24.3049 0.867963 24.1622 0.567507 23.9083 0.34598C23.6544 0.124453 23.3099 0 22.9508 0Z" fill="white"/>
<path d="M9.7105 11.55H1.58581C1.22667 11.55 0.882247 11.6745 0.628301 11.896C0.374355 12.1176 0.231689 12.418 0.231689 12.7313V19.8188C0.231689 20.1321 0.374355 20.4325 0.628301 20.6541C0.882247 20.8756 1.22667 21 1.58581 21H9.7105C10.0696 21 10.4141 20.8756 10.668 20.6541C10.922 20.4325 11.0646 20.1321 11.0646 19.8188V12.7313C11.0646 12.418 10.922 12.1176 10.668 11.896C10.4141 11.6745 10.0696 11.55 9.7105 11.55Z" fill="white"/>
<path d="M22.9508 11.55H14.8261C14.467 11.55 14.1225 11.6745 13.8686 11.896C13.6147 12.1176 13.472 12.418 13.472 12.7313V19.8188C13.472 20.1321 13.6147 20.4325 13.8686 20.6541C14.1225 20.8756 14.467 21 14.8261 21H22.9508C23.3099 21 23.6544 20.8756 23.9083 20.6541C24.1622 20.4325 24.3049 20.1321 24.3049 19.8188V12.7313C24.3049 12.418 24.1622 12.1176 23.9083 11.896C23.6544 11.6745 23.3099 11.55 22.9508 11.55Z" fill="white"/>
</svg>
