<svg width="26" height="22" viewBox="0 0 26 22" fill="none" xmlns="http://www.w3.org/2000/svg">
<path d="M11.0094 0.658689L2.22869 6.42084C1.59617 6.83582 1.12877 7.41329 0.892283 8.07199C0.655791 8.73069 0.662102 9.43746 0.910328 10.0929L4.5639 19.735C4.81371 20.3944 5.29569 20.9682 5.94125 21.3749C6.58681 21.7816 7.36304 22.0003 8.15944 22H18.4036C19.1946 21.9999 19.9658 21.7838 20.6087 21.3818C21.2515 20.9799 21.7338 20.4124 21.9878 19.7592L25.7385 10.1182C25.9954 9.45747 26.0056 8.74277 25.7676 8.0767C25.5296 7.41063 25.0557 6.82747 24.4138 6.41094L15.541 0.649888L15.4262 0.582784L15.4035 0.571783L15.2698 0.494779C14.6231 0.145442 13.8708 -0.0258763 13.1108 0.00316579C12.3508 0.0322079 11.6185 0.261363 11.0094 0.658689Z" fill="white"/>
</svg>
