<svg width="25" height="21" viewBox="0 0 25 21" fill="none" xmlns="http://www.w3.org/2000/svg">
<path d="M8.4043 6.33992L1.43546 7.2652L1.31203 7.28821C1.12518 7.33363 0.954846 7.42366 0.818415 7.54909C0.681985 7.67452 0.584349 7.83087 0.535478 8.00216C0.486607 8.17344 0.488253 8.35355 0.540247 8.52406C0.59224 8.69458 0.692719 8.8494 0.831422 8.97273L5.88001 13.4731L4.68941 19.8301L4.67521 19.9401C4.66377 20.1171 4.7039 20.2937 4.79148 20.4518C4.87907 20.6099 5.01096 20.7438 5.17366 20.8399C5.33636 20.936 5.52402 20.9907 5.71742 20.9985C5.91082 21.0063 6.10302 20.967 6.27433 20.8844L12.507 17.8835L18.7254 20.8844L18.8346 20.9304C19.0149 20.9954 19.2109 21.0154 19.4024 20.9882C19.5938 20.961 19.774 20.8876 19.9243 20.7756C20.0746 20.6636 20.1897 20.517 20.2577 20.3509C20.3257 20.1847 20.3443 20.005 20.3114 19.8301L19.1197 13.4731L24.1705 8.97173L24.2557 8.8867C24.3774 8.74943 24.4572 8.58506 24.4869 8.41035C24.5167 8.23564 24.4954 8.05682 24.4251 7.89213C24.3548 7.72743 24.2381 7.58273 24.0869 7.47278C23.9357 7.36283 23.7554 7.29155 23.5643 7.2662L16.5954 6.33992L13.4802 0.558141C13.3901 0.390624 13.2505 0.249561 13.0773 0.15092C12.9042 0.0522794 12.7043 0 12.5004 0C12.2965 0 12.0966 0.0522794 11.9235 0.15092C11.7503 0.249561 11.6108 0.390624 11.5206 0.558141L8.4043 6.33992Z" fill="white"/>
</svg>
