<svg width="13" height="14" viewBox="0 0 13 14" fill="none" xmlns="http://www.w3.org/2000/svg">
<path d="M9.20703 12.4996H10.5197C10.8679 12.4996 11.2017 12.3495 11.4479 12.0824C11.6941 11.8152 11.8324 11.4529 11.8324 11.075V9.65048" fill="#00B6F4"/>
<path d="M9.20703 12.4996H10.5197C10.8679 12.4996 11.2017 12.3495 11.4479 12.0824C11.6941 11.8152 11.8324 11.4529 11.8324 11.075V9.65048" stroke="#00B6F4" stroke-width="2" stroke-linecap="round" stroke-linejoin="round"/>
<path d="M1.33105 9.65048V11.075C1.33105 11.4529 1.46935 11.8152 1.71553 12.0824C1.96171 12.3495 2.29559 12.4996 2.64374 12.4996H3.95642" fill="#00B6F4"/>
<path d="M1.33105 9.65048V11.075C1.33105 11.4529 1.46935 11.8152 1.71553 12.0824C1.96171 12.3495 2.29559 12.4996 2.64374 12.4996H3.95642" stroke="#00B6F4" stroke-width="2" stroke-linecap="round" stroke-linejoin="round"/>
<path d="M1.33105 3.95228V2.52772C1.33105 2.1499 1.46935 1.78755 1.71553 1.5204C1.96171 1.25324 2.29559 1.10315 2.64374 1.10315H3.95642" fill="#00B6F4"/>
<path d="M1.33105 3.95228V2.52772C1.33105 2.1499 1.46935 1.78755 1.71553 1.5204C1.96171 1.25324 2.29559 1.10315 2.64374 1.10315H3.95642" stroke="#00B6F4" stroke-width="2" stroke-linecap="round" stroke-linejoin="round"/>
<path d="M9.20752 1.10315H10.5202C10.8683 1.10315 11.2022 1.25324 11.4484 1.5204C11.6946 1.78755 11.8329 2.1499 11.8329 2.52772V3.95228" fill="#00B6F4"/>
<path d="M9.20752 1.10315H10.5202C10.8683 1.10315 11.2022 1.25324 11.4484 1.5204C11.6946 1.78755 11.8329 2.1499 11.8329 2.52772V3.95228" stroke="#00B6F4" stroke-width="2" stroke-linecap="round" stroke-linejoin="round"/>
</svg>
